<svg version="1.1" xmlns="http://www.w3.org/2000/svg" viewBox="0 0 549.70703125 462.8840789794922" width="549.70703125" height="462.8840789794922" filter="invert(93%) hue-rotate(180deg)" class="excalidraw-svg">
  <!-- svg-source:excalidraw -->
  
  <defs>
    <style class="style-fonts">
      @font-face {
        font-family: "Virgil";
        src: url("https://excalidraw.com/Virgil.woff2");
      }
      @font-face {
        font-family: "Cascadia";
        src: url("https://excalidraw.com/Cascadia.woff2");
      }
      @font-face {
        font-family: "Assistant";
        src: url("https://excalidraw.com/Assistant-Regular.woff2");
      }
    </style>
    
  </defs>
  <rect x="0" y="0" width="549.70703125" height="462.8840789794922" fill="#ffffff"/><g transform="translate(173.779296875 52.23307800292969) rotate(0 101.07421875 179.2089614868164)" stroke="none"><path fill="#CECDCC" d="M 3.29,2.68 Q 3.29,2.68 -5.81,13.81 -14.91,24.94 -24.47,36.69 -34.03,48.44 -45.49,63.17 -56.94,77.91 -67.69,93.73 -78.44,109.56 -84.13,118.34 -89.82,127.12 -94.04,134.37 -98.25,141.63 -101.03,146.97 -103.81,152.31 -105.88,157.21 -107.94,162.11 -108.93,165.62 -109.93,169.14 -107.83,170.42 -105.73,171.70 -97.17,171.26 -88.61,170.82 -70.91,164.76 -53.21,158.70 -35.75,151.53 -18.28,144.35 9.90,130.80 38.09,117.26 64.45,103.44 90.81,89.62 131.79,69.68 172.76,49.74 193.66,39.64 214.56,29.54 237.82,18.92 261.08,8.29 274.44,2.49 287.80,-3.29 296.33,-6.89 304.86,-10.48 316.96,-14.62 329.07,-18.77 336.09,-21.03 343.11,-23.30 348.70,-24.88 354.28,-26.47 358.96,-26.46 363.64,-26.45 364.71,-23.65 365.77,-20.85 362.79,-16.35 359.82,-11.85 347.74,-0.50 335.67,10.84 324.80,20.13 313.94,29.42 288.48,49.69 263.01,69.97 243.95,84.86 224.88,99.76 203.37,116.48 181.86,133.19 134.30,170.62 86.74,208.05 53.60,233.48 20.47,258.91 -1.11,275.90 -22.70,292.90 -41.94,307.78 -61.18,322.67 -75.28,333.42 -89.37,344.17 -100.04,352.51 -110.72,360.84 -118.27,366.89 -125.83,372.93 -132.11,377.96 -138.38,382.99 -144.45,387.70 -150.52,392.40 -153.70,395.01 -156.89,397.62 -158.36,398.91 -159.83,400.19 -160.47,400.85 -161.11,401.51 -161.37,401.69 -161.63,401.87 -161.92,401.98 -162.22,402.09 -162.53,402.13 -162.84,402.16 -163.15,402.12 -163.47,402.09 -163.76,401.97 -164.06,401.86 -164.31,401.68 -164.57,401.50 -164.78,401.26 -164.99,401.03 -165.13,400.75 -165.28,400.47 -165.35,400.16 -165.43,399.85 -165.43,399.54 -165.43,399.22 -165.35,398.92 -165.27,398.61 -165.12,398.33 -164.98,398.05 -164.77,397.82 -164.56,397.58 -162.53,397.71 -160.51,397.83 -158.25,397.84 -155.98,397.84 -152.28,397.91 -148.57,397.97 -142.23,396.25 -135.89,394.54 -128.13,392.05 -120.37,389.57 -94.12,379.30 -67.87,369.03 -43.52,358.68 -19.17,348.34 -3.72,341.96 11.73,335.58 31.95,327.20 52.17,318.83 76.12,309.60 100.06,300.37 111.55,296.16 123.04,291.95 130.26,289.48 137.48,287.01 145.18,284.59 152.88,282.18 159.90,280.17 166.92,278.16 171.31,277.16 175.70,276.16 178.61,275.73 181.51,275.30 182.95,275.12 184.39,274.94 184.93,275.03 185.47,275.11 185.73,275.11 185.99,275.11 186.25,275.17 186.50,275.23 186.74,275.36 186.97,275.48 187.17,275.65 187.37,275.82 187.52,276.04 187.67,276.25 187.76,276.50 187.86,276.74 187.89,277.01 187.92,277.27 187.89,277.53 187.86,277.79 187.77,278.04 187.68,278.28 187.53,278.50 187.38,278.72 187.19,278.89 186.99,279.07 186.76,279.19 186.53,279.31 186.27,279.38 186.02,279.44 183.11,282.50 180.20,285.55 173.97,289.98 167.74,294.42 161.09,299.21 154.44,304.01 148.95,308.15 143.46,312.28 139.41,315.31 135.36,318.34 131.45,321.23 127.54,324.12 124.51,326.45 121.49,328.79 119.51,330.53 117.54,332.28 116.68,333.14 115.82,334.00 115.61,334.14 115.40,334.29 115.17,334.38 114.93,334.46 114.69,334.49 114.44,334.52 114.19,334.49 113.94,334.46 113.71,334.37 113.47,334.29 113.27,334.14 113.06,334.00 112.89,333.81 112.73,333.63 112.61,333.40 112.50,333.18 112.44,332.94 112.38,332.70 112.38,332.45 112.38,332.20 112.44,331.95 112.50,331.71 112.61,331.49 112.73,331.27 112.90,331.08 113.06,330.89 114.21,330.90 115.36,330.91 118.35,329.24 121.34,327.56 126.17,324.96 131.00,322.35 142.18,314.81 153.35,307.27 170.06,295.50 186.76,283.73 200.01,273.36 213.27,262.99 236.39,239.33 259.52,215.67 275.38,196.25 291.24,176.83 303.24,157.38 315.25,137.92 322.35,124.42 329.46,110.91 332.99,101.82 336.53,92.72 338.46,82.42 340.39,72.12 341.27,62.92 342.15,53.72 340.07,44.56 337.98,35.41 334.76,29.87 331.53,24.33 320.66,20.78 309.79,17.23 293.85,15.24 277.91,13.25 256.61,12.80 235.32,12.35 210.68,14.13 186.04,15.91 169.77,17.97 153.50,20.03 132.85,24.16 112.19,28.29 96.89,31.59 81.58,34.89 63.12,39.49 44.67,44.08 32.45,47.55 20.24,51.02 13.98,52.76 7.72,54.50 0.08,56.61 -7.54,58.71 -13.65,60.48 -19.76,62.24 -23.91,63.61 -28.05,64.98 -30.09,65.86 -32.13,66.73 -28.42,68.37 -24.71,70.00 -19.13,71.96 -13.55,73.93 -3.52,78.35 6.51,82.76 13.94,86.38 21.37,89.99 32.37,96.09 43.38,102.19 56.50,110.83 69.61,119.48 82.76,129.67 95.91,139.86 107.83,151.05 119.74,162.25 129.74,173.51 139.74,184.76 147.43,194.77 155.12,204.78 161.16,214.03 167.20,223.28 170.61,229.30 174.02,235.31 175.83,238.69 177.63,242.08 178.77,245.62 179.92,249.17 180.45,252.17 180.99,255.17 180.33,257.06 179.67,258.95 175.99,259.78 172.30,260.61 165.96,260.90 159.62,261.20 148.68,257.86 137.75,254.53 123.45,246.35 109.15,238.17 81.63,214.58 54.12,190.99 31.79,165.34 9.47,139.70 -6.54,118.96 -22.57,98.23 -32.55,83.28 -42.54,68.33 -52.18,52.05 -61.82,35.77 -68.15,25.06 -74.48,14.34 -79.77,4.28 -85.06,-5.77 -89.46,-13.74 -93.85,-21.70 -95.99,-25.76 -98.13,-29.82 -99.56,-33.10 -100.98,-36.39 -101.58,-38.00 -102.19,-39.61 -102.55,-40.63 -102.92,-41.64 -102.93,-41.68 -102.93,-41.72 -102.93,-41.75 -102.93,-41.79 -102.92,-41.83 -102.91,-41.87 -102.89,-41.90 -102.88,-41.93 -102.85,-41.96 -102.82,-41.99 -102.79,-42.01 -102.76,-42.03 -102.72,-42.05 -102.69,-42.06 -102.65,-42.06 -102.61,-42.07 -102.57,-42.06 -102.53,-42.06 -102.50,-42.04 -102.46,-42.03 -102.43,-42.00 -102.40,-41.98 -102.38,-41.95 -102.35,-41.92 -102.33,-41.89 -102.32,-41.85 -100.24,-38.58 -98.15,-35.31 -93.98,-29.33 -89.81,-23.35 -84.07,-15.20 -78.32,-7.05 -69.56,5.79 -60.81,18.65 -52.17,31.54 -43.53,44.44 -26.70,69.47 -9.87,94.49 3.00,112.54 15.88,130.59 23.23,140.83 30.57,151.08 34.65,156.87 38.72,162.66 42.33,166.24 45.93,169.82 49.57,173.43 53.21,177.04 54.76,178.58 56.31,180.11 56.31,180.11 56.31,180.12 56.30,180.12 56.30,180.12 54.75,178.59 53.20,177.06 49.55,173.45 45.90,169.85 42.29,166.27 38.68,162.69 34.59,156.91 30.50,151.13 23.13,140.90 15.76,130.68 2.84,112.65 -10.08,94.63 -26.97,69.65 -43.86,44.66 -52.52,31.78 -61.19,18.91 -69.97,6.08 -78.76,-6.74 -84.52,-14.88 -90.29,-23.02 -94.48,-29.00 -98.67,-34.98 -100.79,-38.31 -102.92,-41.64 -102.93,-41.68 -102.93,-41.72 -102.93,-41.75 -102.93,-41.79 -102.92,-41.83 -102.91,-41.87 -102.89,-41.90 -102.88,-41.93 -102.85,-41.96 -102.82,-41.99 -102.79,-42.01 -102.76,-42.03 -102.72,-42.05 -102.69,-42.06 -102.65,-42.06 -102.61,-42.07 -102.57,-42.06 -102.53,-42.06 -102.50,-42.04 -102.46,-42.03 -102.43,-42.00 -102.40,-41.98 -102.38,-41.95 -102.35,-41.92 -102.33,-41.89 -102.32,-41.85 -101.95,-40.85 -101.59,-39.84 -100.98,-38.24 -100.38,-36.65 -98.96,-33.39 -97.54,-30.13 -95.40,-26.08 -93.25,-22.03 -88.83,-14.07 -84.42,-6.11 -79.11,3.91 -73.81,13.94 -67.45,24.64 -61.09,35.34 -51.43,51.58 -41.77,67.81 -31.77,82.71 -21.77,97.61 -5.72,118.28 10.33,138.95 32.64,164.48 54.96,190.01 82.42,213.45 109.88,236.90 124.04,244.98 138.21,253.06 148.89,256.34 159.57,259.61 165.78,259.32 171.99,259.02 175.38,258.45 178.76,257.88 179.07,256.63 179.37,255.37 178.86,252.53 178.34,249.68 177.25,246.27 176.15,242.86 174.35,239.51 172.55,236.15 169.15,230.19 165.76,224.23 159.74,215.05 153.71,205.86 146.04,195.92 138.37,185.98 128.41,174.81 118.44,163.64 106.57,152.53 94.70,141.42 81.59,131.31 68.48,121.20 55.42,112.63 42.35,104.05 31.38,98.01 20.41,91.96 13.01,88.38 5.61,84.80 -4.34,80.44 -14.31,76.08 -19.85,74.14 -25.40,72.20 -29.13,71.02 -32.86,69.85 -34.05,69.19 -35.24,68.52 -35.23,67.29 -35.22,66.05 -34.14,65.32 -33.06,64.59 -30.92,63.67 -28.79,62.75 -24.61,61.36 -20.42,59.97 -14.30,58.18 -8.18,56.40 -0.55,54.28 7.06,52.16 13.31,50.41 19.56,48.65 31.81,45.14 44.06,41.63 62.54,36.99 81.02,32.34 96.34,29.00 111.66,25.66 132.40,21.46 153.15,17.27 169.49,15.17 185.83,13.06 210.61,11.22 235.38,9.37 256.83,9.79 278.29,10.20 294.54,12.22 310.79,14.24 322.33,18.30 333.87,22.36 337.50,28.51 341.13,34.65 343.27,44.32 345.41,53.98 344.54,63.36 343.66,72.73 341.67,83.33 339.67,93.93 336.08,103.22 332.49,112.50 325.35,126.13 318.22,139.75 306.13,159.43 294.03,179.10 278.11,198.68 262.18,218.26 238.92,242.15 215.66,266.03 202.35,276.49 189.04,286.95 172.33,298.79 155.62,310.62 144.29,318.29 132.96,325.96 128.03,328.63 123.10,331.30 119.46,332.65 115.82,334.00 115.61,334.14 115.40,334.29 115.17,334.38 114.94,334.46 114.69,334.49 114.44,334.52 114.19,334.49 113.94,334.46 113.71,334.37 113.47,334.29 113.27,334.14 113.06,334.00 112.89,333.81 112.73,333.63 112.61,333.40 112.50,333.18 112.44,332.94 112.38,332.70 112.38,332.45 112.38,332.20 112.44,331.95 112.50,331.71 112.61,331.49 112.73,331.27 112.90,331.08 113.06,330.89 113.92,330.03 114.78,329.16 116.86,327.32 118.94,325.48 121.99,323.12 125.05,320.76 128.94,317.86 132.84,314.97 136.87,311.94 140.91,308.91 146.43,304.73 151.94,300.55 158.59,295.73 165.24,290.91 171.23,286.65 177.21,282.40 181.34,278.76 185.47,275.11 185.73,275.11 185.99,275.11 186.25,275.17 186.50,275.23 186.74,275.36 186.97,275.48 187.17,275.65 187.37,275.82 187.52,276.04 187.67,276.25 187.76,276.50 187.86,276.74 187.89,277.01 187.92,277.27 187.89,277.53 187.86,277.79 187.77,278.04 187.68,278.28 187.53,278.50 187.38,278.72 187.19,278.89 186.99,279.07 186.76,279.19 186.53,279.31 186.27,279.38 186.02,279.44 185.45,279.36 184.89,279.27 183.52,279.44 182.16,279.62 179.42,280.03 176.68,280.44 172.40,281.42 168.13,282.39 161.17,284.40 154.21,286.41 146.57,288.83 138.94,291.24 131.77,293.71 124.60,296.18 113.15,300.41 101.71,304.64 77.84,313.90 53.97,323.16 33.77,331.58 13.56,340.01 -1.84,346.41 -17.26,352.82 -41.65,363.25 -66.04,373.68 -92.42,384.06 -118.80,394.45 -126.68,396.99 -134.57,399.53 -141.59,401.34 -148.60,403.16 -152.42,403.10 -156.24,403.05 -158.67,402.28 -161.11,401.51 -161.37,401.69 -161.63,401.87 -161.92,401.98 -162.22,402.09 -162.53,402.13 -162.84,402.16 -163.15,402.12 -163.47,402.09 -163.76,401.97 -164.06,401.86 -164.31,401.68 -164.57,401.50 -164.78,401.26 -164.99,401.03 -165.13,400.75 -165.28,400.47 -165.35,400.16 -165.43,399.85 -165.43,399.54 -165.43,399.22 -165.35,398.92 -165.27,398.61 -165.12,398.33 -164.98,398.06 -164.77,397.82 -164.56,397.59 -163.92,396.92 -163.28,396.26 -161.75,394.91 -160.22,393.56 -156.98,390.91 -153.75,388.25 -147.72,383.55 -141.70,378.86 -135.43,373.81 -129.17,368.77 -121.60,362.69 -114.03,356.61 -103.35,348.23 -92.67,339.85 -78.62,329.08 -64.57,318.31 -45.38,303.39 -26.19,288.47 -4.62,271.40 16.95,254.34 50.00,228.85 83.05,203.37 130.54,165.82 178.02,128.27 199.49,111.51 220.95,94.74 239.96,79.82 258.97,64.90 284.30,44.64 309.62,24.38 320.35,15.17 331.08,5.96 342.78,-5.03 354.48,-16.02 356.79,-19.40 359.10,-22.77 357.62,-21.34 356.15,-19.91 350.69,-18.35 345.22,-16.79 338.26,-14.52 331.31,-12.26 319.43,-8.17 307.56,-4.09 299.07,-0.49 290.59,3.10 277.31,8.90 264.02,14.70 240.86,25.35 217.69,36.00 196.82,46.14 175.96,56.28 135.13,76.27 94.30,96.26 67.85,110.19 41.40,124.13 13.04,137.84 -15.32,151.54 -33.00,158.84 -50.69,166.15 -69.46,172.45 -88.24,178.75 -98.34,178.96 -108.44,179.17 -112.27,177.11 -116.10,175.06 -116.88,171.07 -117.66,167.09 -116.51,163.04 -115.35,158.99 -113.16,153.79 -110.97,148.60 -108.12,143.08 -105.26,137.57 -100.96,130.13 -96.65,122.70 -90.93,113.83 -85.21,104.97 -74.35,88.90 -63.48,72.83 -52.00,58.00 -40.52,43.17 -30.98,31.39 -21.44,19.61 -12.37,8.46 -3.29,-2.68 -2.92,-3.04 -2.55,-3.39 -2.11,-3.65 -1.66,-3.90 -1.17,-4.05 -0.68,-4.19 -0.17,-4.21 0.34,-4.23 0.84,-4.13 1.34,-4.03 1.80,-3.81 2.27,-3.59 2.66,-3.26 3.06,-2.94 3.37,-2.53 3.68,-2.12 3.88,-1.65 4.08,-1.18 4.16,-0.67 4.24,-0.17 4.20,0.33 4.16,0.84 4.00,1.33 3.83,1.82 3.56,2.25 3.29,2.68 3.29,2.68 L 3.29,2.68 Z"/></g></svg>