<svg version="1.1" xmlns="http://www.w3.org/2000/svg" viewBox="0 0 904.0515993461446 564.323852569483" width="904.0515993461446" height="564.323852569483">
  <!-- svg-source:excalidraw -->
  
  <defs>
    <style>
      @font-face {
        font-family: "Virgil";
        src: url("https://excalidraw.com/Virgil.woff2");
      }
      @font-face {
        font-family: "Cascadia";
        src: url("https://excalidraw.com/Cascadia.woff2");
      }
    </style>
  </defs>
  <rect x="0" y="0" width="904.0515993461446" height="564.323852569483" fill="#ffffff"></rect><g stroke-linecap="round" transform="translate(10 154.60615542592848) rotate(0 70.5 64.5)"><path d="M42.55 5.58 C51 1.45, 63.42 0.78, 73.67 1.02 C83.92 1.25, 95.22 2.83, 104.05 7.01 C112.88 11.19, 120.78 18.57, 126.67 26.1 C132.56 33.64, 137.37 42.9, 139.38 52.22 C141.39 61.53, 141.25 72.78, 138.73 82.02 C136.21 91.26, 130.83 100.57, 124.25 107.64 C117.68 114.71, 108.62 120.77, 99.28 124.45 C89.94 128.12, 78.37 130.12, 68.23 129.67 C58.08 129.23, 47.67 126.34, 38.41 121.77 C29.16 117.2, 18.92 109.88, 12.72 102.26 C6.52 94.65, 2.99 85.05, 1.22 76.11 C-0.54 67.16, -0.69 57.45, 2.13 48.61 C4.95 39.76, 11.13 30.39, 18.12 23.04 C25.11 15.69, 39.33 7.65, 44.09 4.5 C48.85 1.36, 46.34 3.14, 46.68 4.19 M53.08 2.97 C62.27 0.23, 75.06 0.59, 85.02 2.2 C94.98 3.81, 104.87 7.04, 112.86 12.65 C120.85 18.26, 128.26 27.41, 132.95 35.84 C137.63 44.27, 140.84 53.9, 140.95 63.24 C141.07 72.59, 138.03 83.31, 133.64 91.91 C129.25 100.51, 122.55 108.86, 114.63 114.86 C106.71 120.86, 95.79 125.58, 86.13 127.92 C76.47 130.25, 66.69 131.07, 56.65 128.88 C46.61 126.69, 34.17 120.9, 25.89 114.78 C17.61 108.66, 11.41 100.56, 7 92.15 C2.59 83.75, -0.35 73.39, -0.57 64.35 C-0.79 55.3, 1.26 46.08, 5.67 37.89 C10.09 29.69, 17.73 21.38, 25.92 15.17 C34.11 8.95, 49.95 2.45, 54.84 0.6 C59.72 -1.25, 55.08 2.95, 55.25 4.05" stroke="#000000" stroke-width="1" fill="none"></path></g><g transform="translate(47 206.60615542592848) rotate(0 33.5 12.5)"><text x="33.5" y="18" font-family="Virgil, Segoe UI Emoji" font-size="20px" fill="#000000" text-anchor="middle" style="white-space: pre;" direction="ltr">create</text></g><g stroke-linecap="round" transform="translate(217.07144165039062 92.17758944692457) rotate(0 179.5 103.5)"><path d="M-0.37 -0.9 C81 1.19, 162.01 2.15, 358.28 0.2 M-0.19 0.54 C81.87 1.66, 163.56 2.41, 358.38 -0.02 M357.59 -0.38 C357.41 79.51, 359.73 159.13, 358.68 207.37 M359.57 -0.64 C358.55 53.2, 357.31 104.89, 359.88 206.69 M358.72 206.45 C257.31 209.11, 157 207.84, -0.88 206.85 M358.9 206.45 C262.92 206.75, 167.32 206.89, 0.61 206.98 M-0.49 206.57 C-1.57 139.04, -1.47 74.98, -1.7 -0.01 M0.85 206.78 C0.81 136.23, 1.44 64.55, -0.62 0.59" stroke="#862e9c" stroke-width="1" fill="none"></path></g><g stroke-linecap="round" transform="translate(218.71426391601562 386.1061325377449) rotate(0 179.28570556640625 49.42177436465309)"><path d="M0.26 -0.89 C106.68 -0.35, 211.57 -0.4, 359.27 -0.42 M0.09 -0.34 C92.74 0.99, 185.19 1.66, 358.31 0.46 M360.21 -0.31 C359.02 34.75, 357.55 70.15, 358.18 99.99 M358.28 0.06 C359.9 28.44, 358.39 57.4, 358.66 99.59 M357.84 98.35 C283.97 100.37, 211.4 100.63, 1.06 99.31 M358.56 98.92 C259.74 99.75, 160.41 100.28, -0.49 98.46 M-1.54 97.86 C-2.04 73.74, -0.28 46.1, -0.86 -1.33 M-0.48 99.42 C-1.14 69.96, -0.52 40.34, 0.93 -0.15" stroke="#c92a2a" stroke-width="1" fill="none"></path></g><g transform="translate(355.06803530738466 425.13337637900696) rotate(0 38.5 12.5)"><text x="0" y="18" font-family="Virgil, Segoe UI Emoji" font-size="20px" fill="#000000" text-anchor="start" style="white-space: pre;" direction="ltr">Blocking</text></g><g transform="translate(362.5714416503906 108.17758944692457) rotate(0 34 87.5)"><text x="34" y="18" font-family="Virgil, Segoe UI Emoji" font-size="20px" fill="#862e9c" text-anchor="middle" style="white-space: pre;" direction="ltr">Running</text><text x="34" y="43" font-family="Virgil, Segoe UI Emoji" font-size="20px" fill="#862e9c" text-anchor="middle" style="white-space: pre;" direction="ltr"></text><text x="34" y="68" font-family="Virgil, Segoe UI Emoji" font-size="20px" fill="#862e9c" text-anchor="middle" style="white-space: pre;" direction="ltr"></text><text x="34" y="93" font-family="Virgil, Segoe UI Emoji" font-size="20px" fill="#862e9c" text-anchor="middle" style="white-space: pre;" direction="ltr"></text><text x="34" y="118" font-family="Virgil, Segoe UI Emoji" font-size="20px" fill="#862e9c" text-anchor="middle" style="white-space: pre;" direction="ltr"></text><text x="34" y="143" font-family="Virgil, Segoe UI Emoji" font-size="20px" fill="#862e9c" text-anchor="middle" style="white-space: pre;" direction="ltr"></text><text x="34" y="168" font-family="Virgil, Segoe UI Emoji" font-size="20px" fill="#862e9c" text-anchor="middle" style="white-space: pre;" direction="ltr"></text></g><g stroke-linecap="round" transform="translate(656.5346905316405 146.2940545918638) rotate(0 70.5 64.5)"><path d="M46.62 3.07 C55.53 -0.94, 68.9 -1.53, 79.18 -0.41 C89.45 0.7, 99.83 4.49, 108.26 9.77 C116.68 15.05, 124.35 23.19, 129.72 31.28 C135.08 39.37, 139.38 49.35, 140.43 58.31 C141.47 67.27, 139.23 76.36, 135.99 85.03 C132.75 93.7, 128.04 103.57, 120.99 110.32 C113.93 117.07, 103.3 122.4, 93.66 125.53 C84.01 128.67, 73.2 130.06, 63.11 129.12 C53.02 128.17, 41.85 124.93, 33.12 119.85 C24.39 114.77, 16.26 106.81, 10.74 98.63 C5.21 90.45, 0.96 80.06, -0.03 70.76 C-1.02 61.45, 1.19 51.56, 4.78 42.79 C8.37 34.01, 14 24.8, 21.5 18.12 C29 11.44, 44.29 5.08, 49.78 2.68 C55.27 0.28, 53.97 2.63, 54.43 3.73 M60.67 0.25 C70.34 -1.65, 84.67 0.98, 94.26 4.03 C103.85 7.08, 111.23 12.35, 118.21 18.53 C125.2 24.7, 132.38 32.32, 136.17 41.07 C139.95 49.82, 141.77 61.46, 140.91 71.03 C140.06 80.6, 136.6 90.55, 131.04 98.5 C125.49 106.44, 115.99 113.49, 107.58 118.72 C99.18 123.96, 90.73 128.64, 80.6 129.9 C70.47 131.16, 56.51 129.55, 46.82 126.28 C37.13 123.01, 29.35 116.71, 22.46 110.27 C15.57 103.84, 9.3 96.42, 5.48 87.66 C1.66 78.91, -1.18 67.07, -0.46 57.74 C0.25 48.4, 4.42 39.6, 9.78 31.65 C15.13 23.69, 22.82 15.1, 31.67 10.02 C40.53 4.95, 57.82 2.77, 62.9 1.2 C67.97 -0.36, 62.15 -0.18, 62.12 0.64" stroke="#000000" stroke-width="1" fill="none"></path></g><g transform="translate(707.0346905316405 198.2940545918638) rotate(0 20 12.5)"><text x="20" y="18" font-family="Virgil, Segoe UI Emoji" font-size="20px" fill="#000000" text-anchor="middle" style="white-space: pre;" direction="ltr">exit</text></g><g stroke-linecap="round"><g transform="translate(155.14285278320312 223.3918762511238) rotate(0 49.13803696779627 15.045226211668137)"><path d="M0.5 -0.87 C16.59 4.09, 81.48 25.07, 97.76 30.19 M-0.7 1.29 C15.08 6.42, 80.19 26.82, 96.53 31.78" stroke="#000000" stroke-width="1" fill="none"></path></g><g transform="translate(155.14285278320312 223.3918762511238) rotate(0 49.13803696779627 15.045226211668137)"><path d="M65.12 32.38 C78.7 32.35, 90.12 33.45, 95.85 31.6 M66.54 33.85 C79.15 33.18, 90.59 32.94, 97.23 31.44" stroke="#000000" stroke-width="1" fill="none"></path></g><g transform="translate(155.14285278320312 223.3918762511238) rotate(0 49.13803696779627 15.045226211668137)"><path d="M71.19 12.78 C82.41 20.6, 91.41 29.53, 95.85 31.6 M72.6 14.25 C82.75 21.14, 91.84 28.49, 97.23 31.44" stroke="#000000" stroke-width="1" fill="none"></path></g></g><g stroke-linecap="round"><g transform="translate(531.282803083591 245.69145752152716) rotate(0 61.09659159702878 -15.155482413571818)"><path d="M-0.4 -0.83 C19.72 -5.94, 101.27 -24.81, 121.53 -29.82 M1.59 1.34 C22.03 -4.2, 103.57 -26.49, 123.9 -31.68" stroke="#000000" stroke-width="1" fill="none"></path></g><g transform="translate(531.282803083591 245.69145752152716) rotate(0 61.09659159702878 -15.155482413571818)"><path d="M97.9 -15.63 C109.09 -22.46, 116.45 -25.71, 123.18 -32.41 M99.22 -15.21 C106 -20.26, 112.61 -24.23, 124.79 -31.93" stroke="#000000" stroke-width="1" fill="none"></path></g><g transform="translate(531.282803083591 245.69145752152716) rotate(0 61.09659159702878 -15.155482413571818)"><path d="M92.63 -35.46 C105.91 -34.94, 115.22 -30.85, 123.18 -32.41 M93.95 -35.04 C102.35 -34.69, 110.41 -33.22, 124.79 -31.93" stroke="#000000" stroke-width="1" fill="none"></path></g></g><g stroke-linecap="round"><g transform="translate(315.5971964716872 311.50125218859336) rotate(0 1.7414146921238682 32.00905581416733)"><path d="M-0.72 0.07 C-0.37 10.63, 2.15 53.23, 2.66 63.94 M1.1 -0.95 C1.79 9.77, 4.35 54.31, 4.94 65.44" stroke="#000000" stroke-width="1" fill="none"></path></g><g transform="translate(315.5971964716872 311.50125218859336) rotate(0 1.7414146921238682 32.00905581416733)"><path d="M-6.76 36.49 C-2.82 45.45, 1.87 58.64, 5.38 66.26 M-7.56 38.22 C-1.51 49.04, 1.82 59.53, 5.52 64.93" stroke="#000000" stroke-width="1" fill="none"></path></g><g transform="translate(315.5971964716872 311.50125218859336) rotate(0 1.7414146921238682 32.00905581416733)"><path d="M13.73 35.35 C10.64 44.58, 8.3 58.16, 5.38 66.26 M12.93 37.08 C10.94 48.18, 6.23 59.12, 5.52 64.93" stroke="#000000" stroke-width="1" fill="none"></path></g></g><g stroke-linecap="round"><g transform="translate(476.83185331141146 368.0755474435051) rotate(0 0.6757827672072434 -28.287147627455862)"><path d="M0.06 -1.13 C0.1 -10.36, 0.73 -46.81, 0.9 -55.99 M-1.36 0.88 C-1.59 -8.64, -0.54 -47.92, -0.29 -57.8" stroke="#000000" stroke-width="1" fill="none"></path></g><g transform="translate(476.83185331141146 368.0755474435051) rotate(0 0.6757827672072434 -28.287147627455862)"><path d="M6.82 -31.73 C6.6 -41.04, 2.99 -50.09, -1.39 -56.27 M7.85 -30.39 C5.85 -38.77, 2.69 -49.3, -0.08 -58.14" stroke="#000000" stroke-width="1" fill="none"></path></g><g transform="translate(476.83185331141146 368.0755474435051) rotate(0 0.6757827672072434 -28.287147627455862)"><path d="M-12.53 -32.22 C-5.81 -41.37, -2.49 -50.24, -1.39 -56.27 M-11.5 -30.88 C-7.22 -39.13, -4.1 -49.5, -0.08 -58.14" stroke="#000000" stroke-width="1" fill="none"></path></g></g><g transform="translate(206.6734517415365 504.3238525694831) rotate(0 239 25)"><text x="0" y="18" font-family="Virgil, Segoe UI Emoji" font-size="20px" fill="#c92a2a" text-anchor="start" style="white-space: pre;" direction="ltr">goroutines forever in blocking will never exit!</text><text x="0" y="43" font-family="Virgil, Segoe UI Emoji" font-size="20px" fill="#c92a2a" text-anchor="start" style="white-space: pre;" direction="ltr">if all blocked, deadlock will cause Go to crash. </text></g><g transform="translate(653.0515993461446 294.10946307654694) rotate(0 120.5 25)"><text x="0" y="18" font-family="Virgil, Segoe UI Emoji" font-size="20px" fill="#000000" text-anchor="start" style="white-space: pre;" direction="ltr">only goroutines in running</text><text x="0" y="43" font-family="Virgil, Segoe UI Emoji" font-size="20px" fill="#000000" text-anchor="start" style="white-space: pre;" direction="ltr">state can exit</text></g><g stroke-linecap="round" transform="translate(256.67463722715996 152.99575972508936) rotate(0 139.5 20.5)"><path d="M1.27 0.5 C92.14 1.18, 182.04 -0.96, 277.7 -0.49 M0.57 0 C59.37 1.64, 118.24 1.46, 279.3 0.3 M277.63 0.4 C277.98 8.88, 278.95 19.36, 279.59 40.37 M279.08 0.56 C279.34 12.43, 279.62 23.71, 279.25 40.2 M279.04 42.44 C189.71 41.05, 99.37 39.8, -0.98 42.47 M279 41.74 C179.7 41.53, 78.68 41.7, 0.08 40.94 M1.74 42.26 C0.16 25.02, 1.83 9.17, -1.42 0.53 M0.87 41.35 C0.36 26.25, -0.22 9.9, 0.43 0.17" stroke="#862e9c" stroke-width="1" fill="none"></path></g><g transform="translate(276.67463722715996 160.99575972508936) rotate(0 119.5 12.5)"><text x="119.5" y="18" font-family="Virgil, Segoe UI Emoji" font-size="20px" fill="#862e9c" text-anchor="middle" style="white-space: pre;" direction="ltr">sleeping, system calling...</text></g><g stroke-linecap="round" transform="translate(262.0741503352356 229.99996508800157) rotate(0 61.5 25)"><path d="M-0.74 -1.42 C36.63 0.43, 71.27 -0.7, 124.75 0.7 M-0.85 0.43 C39.14 1.48, 77.1 -0.19, 123.78 -0.83 M124.81 0.99 C121.77 14.57, 124.38 32.08, 122.06 51.75 M123 0.22 C122.17 19.35, 124.09 37.52, 122.43 49.99 M121.2 49.23 C75.85 49.11, 24.31 49.53, 0.17 48.67 M123.24 50.77 C88.55 49.21, 54.34 49.64, -0.02 50.84 M-1.12 48.45 C-0.66 37.01, -1.51 27.85, -0.59 -0.09 M-0.46 50.47 C-0.74 36.24, -0.01 23.69, 0.75 -0.38" stroke="#862e9c" stroke-width="1" fill="none"></path></g><g stroke-linecap="round" transform="translate(404.85511063715705 227.2615037220393) rotate(0 61.5 25)"><path d="M0.71 -0.24 C42.36 1.28, 87.86 0.71, 121.6 -0.03 M0.68 0.7 C43.82 -1.62, 87.37 -1.18, 123.57 -0.73 M121.3 -1.99 C122.46 12.44, 121.58 21.1, 121.21 51.61 M122.19 -0.21 C122.29 15.41, 122.9 28.59, 122.9 50.36 M123.68 49.26 C88.75 52.07, 55.33 48.77, 1.21 50.22 M123.74 49.56 C74.26 49.43, 27.32 50.65, -0.97 49.36 M-1.2 50.22 C1.61 34.97, 1.03 21.04, 1.03 -0.81 M-0.43 49.27 C-0.22 34.09, 0 19.55, 0.57 0.31" stroke="#862e9c" stroke-width="1" fill="none"></path></g><g transform="translate(288.5741503352356 242.49996508800157) rotate(0 35 12.5)"><text x="35" y="18" font-family="Virgil, Segoe UI Emoji" font-size="20px" fill="#862e9c" text-anchor="middle" style="white-space: pre;" direction="ltr">queuing</text></g><g transform="translate(420.35511063715705 239.7615037220393) rotate(0 46 12.5)"><text x="46" y="18" font-family="Virgil, Segoe UI Emoji" font-size="20px" fill="#862e9c" text-anchor="middle" style="white-space: pre;" direction="ltr">executing</text></g><g stroke-linecap="round"><g transform="translate(388.22334382180884 242.3511594289641) rotate(0 7.855314616835415 0.7307278486595266)"><path d="M1.07 -0.54 C3.65 -0.47, 12.1 -0.05, 14.74 0.47 M0.17 1.8 C3.19 1.98, 14.18 1.64, 16.94 1.48" stroke="#862e9c" stroke-width="1" fill="none"></path></g><g transform="translate(388.22334382180884 242.3511594289641) rotate(0 7.855314616835415 0.7307278486595266)"><path d="M9.29 3.84 C10.72 4.47, 13.84 3.57, 17.06 1.03 M9.87 4.46 C10.89 4, 13.22 2.88, 16.99 1.11" stroke="#862e9c" stroke-width="1" fill="none"></path></g><g transform="translate(388.22334382180884 242.3511594289641) rotate(0 7.855314616835415 0.7307278486595266)"><path d="M9.07 -1.55 C10.55 0.35, 13.73 0.74, 17.06 1.03 M9.66 -0.93 C10.72 -0.21, 13.1 -0.14, 16.99 1.11" stroke="#862e9c" stroke-width="1" fill="none"></path></g></g><g stroke-linecap="round"><g transform="translate(401.01106166084156 260.61931662043435) rotate(0 -8.037990725247624 0.18268391341577228)"><path d="M1.08 -0.75 C-1.9 -0.8, -14.19 -0.82, -16.98 -0.82 M0.19 1.47 C-2.5 1.57, -12.01 0.35, -14.74 0.1" stroke="#862e9c" stroke-width="1" fill="none"></path></g><g transform="translate(401.01106166084156 260.61931662043435) rotate(0 -8.037990725247624 0.18268391341577228)"><path d="M-7.43 -2.42 C-10.68 -0.74, -13.6 -0.22, -14.79 0.55 M-7.33 -1.59 C-9.87 -1.03, -12.87 -0.16, -14.62 0.2" stroke="#862e9c" stroke-width="1" fill="none"></path></g><g transform="translate(401.01106166084156 260.61931662043435) rotate(0 -8.037990725247624 0.18268391341577228)"><path d="M-8.03 3.04 C-11.03 2.65, -13.72 1.11, -14.79 0.55 M-7.92 3.87 C-10.24 2.47, -13.03 1.37, -14.62 0.2" stroke="#862e9c" stroke-width="1" fill="none"></path></g></g><g stroke-linecap="round"><g transform="translate(322.350321322987 199.5264692881699) rotate(0 0 15.862158996962222)"><path d="M-1.19 1.18 C-1.02 6.58, 0.62 27.12, 0.96 32.19 M0.38 0.75 C0.48 5.81, 0.49 24.97, 0.51 30.32" stroke="#862e9c" stroke-width="1" fill="none"></path></g><g transform="translate(322.350321322987 199.5264692881699) rotate(0 0 15.862158996962222)"><path d="M-3.39 16.68 C-2.75 20.95, -1.93 25.24, 1.03 31.55 M-4.53 16.13 C-2.69 19.92, -1.4 25.51, 0.23 30.77" stroke="#862e9c" stroke-width="1" fill="none"></path></g><g transform="translate(322.350321322987 199.5264692881699) rotate(0 0 15.862158996962222)"><path d="M7.46 16.66 C4.9 20.83, 2.53 25.12, 1.03 31.55 M6.32 16.11 C4.53 19.94, 2.19 25.53, 0.23 30.77" stroke="#862e9c" stroke-width="1" fill="none"></path></g></g><g stroke-linecap="round"><g transform="translate(469.64178850288044 225.2080830963314) rotate(0 -0.37764279089856245 -15.484500070241126)"><path d="M0.38 0.91 C0.46 -4.36, 0.53 -26.45, 0.3 -31.95 M-0.87 0.35 C-0.84 -4.78, 0.08 -25.65, -0.09 -30.92" stroke="#862e9c" stroke-width="1" fill="none"></path></g><g transform="translate(469.64178850288044 225.2080830963314) rotate(0 -0.37764279089856245 -15.484500070241126)"><path d="M6.23 -14.95 C2.36 -20.79, 0.78 -25.21, -0.31 -29.48 M4.32 -16.74 C2.77 -22.11, 1.07 -27.17, 0.23 -30.18" stroke="#862e9c" stroke-width="1" fill="none"></path></g><g transform="translate(469.64178850288044 225.2080830963314) rotate(0 -0.37764279089856245 -15.484500070241126)"><path d="M-4.36 -15.06 C-5.21 -20.9, -3.78 -25.3, -0.31 -29.48 M-6.28 -16.86 C-3.75 -22.11, -1.39 -27.13, 0.23 -30.18" stroke="#862e9c" stroke-width="1" fill="none"></path></g></g><g transform="translate(203.761803908314 10) rotate(0 188.5 25)"><text x="0" y="18" font-family="Virgil, Segoe UI Emoji" font-size="20px" fill="#000000" text-anchor="start" style="white-space: pre;" direction="ltr"> max # of goroutines being executed </text><text x="0" y="43" font-family="Virgil, Segoe UI Emoji" font-size="20px" fill="#000000" text-anchor="start" style="white-space: pre;" direction="ltr">&lt;= # of logical CPUs available.</text></g></svg>